<?xml version="1.0" standalone="no"?>
<!DOCTYPE svg PUBLIC "-//W3C//DTD SVG 20010904//EN"
 "http://www.w3.org/TR/2001/REC-SVG-20010904/DTD/svg10.dtd">
<svg version="1.0" xmlns="http://www.w3.org/2000/svg"
 width="260.000000pt" height="260.000000pt" viewBox="0 0 260.000000 260.000000"
 preserveAspectRatio="xMidYMid meet">
<metadata>
Created by potrace 1.14, written by Peter Selinger 2001-2017
</metadata>
<g transform="translate(0.000000,260.000000) scale(0.100000,-0.100000)"
fill="#000000" stroke="none">
<path d="M0 1540 l0 -1060 1300 0 1300 0 0 1060 0 1060 -1300 0 -1300 0 0
-1060z m2560 0 l0 -1020 -1260 0 -1260 0 0 1020 0 1020 1260 0 1260 0 0 -1020z"/>
<path d="M505 1744 c-162 -26 -277 -89 -311 -169 -54 -129 52 -243 164 -175
47 29 56 61 41 144 -9 47 -9 73 -2 85 17 27 83 44 178 45 77 1 97 -3 140 -24
71 -36 95 -87 102 -217 l6 -99 -119 -48 c-217 -88 -431 -217 -509 -308 -95
-112 -80 -277 33 -349 66 -42 113 -52 217 -47 141 8 260 66 341 168 34 42 44
42 44 0 0 -14 12 -51 28 -80 38 -75 73 -92 178 -88 100 4 149 31 184 104 22
45 23 47 5 60 -27 20 -31 18 -54 -20 -27 -43 -72 -63 -107 -47 -52 23 -57 54
-63 456 l-6 370 -29 63 c-56 122 -148 172 -326 177 -58 2 -118 1 -135 -1z
m315 -656 l0 -181 -31 -49 c-65 -102 -171 -170 -274 -176 -116 -8 -175 43
-175 148 1 135 116 257 365 387 55 29 103 52 108 53 4 0 7 -82 7 -182z"/>
<path d="M1685 1734 c-93 -18 -207 -75 -242 -121 -21 -28 -28 -49 -31 -99 -4
-62 -3 -65 31 -99 27 -27 43 -35 71 -35 52 0 95 25 112 66 13 30 12 42 -1 100
-12 54 -13 69 -3 82 34 40 168 62 264 42 45 -10 67 -21 95 -49 43 -43 57 -85
65 -201 l7 -85 -109 -44 c-202 -80 -387 -187 -488 -281 -153 -142 -119 -354
67 -416 36 -12 75 -15 147 -12 91 3 104 7 183 46 63 31 99 57 139 101 l55 59
12 -53 c25 -111 80 -155 194 -155 102 0 167 40 202 123 15 37 15 37 -10 47
-34 13 -35 13 -35 -3 0 -17 -49 -63 -76 -71 -32 -10 -71 13 -85 48 -9 21 -15
145 -19 396 -7 400 -11 427 -69 508 -76 104 -269 147 -476 106z m365 -643 l0
-180 -43 -62 c-48 -71 -141 -141 -210 -160 -23 -6 -68 -9 -99 -7 -70 5 -112
39 -129 102 -30 111 48 236 223 355 48 32 236 131 251 131 4 0 7 -81 7 -179z"/>
</g>
</svg>
